<svg xmlns="http://www.w3.org/2000/svg" xmlns:xlink="http://www.w3.org/1999/xlink" width="500" zoomAndPan="magnify" viewBox="0 0 375 374.999991" height="500" preserveAspectRatio="xMidYMid meet" version="1.0"><defs><g/><clipPath id="id1"><path d="M 250.457031 142.34375 L 291.707031 142.34375 L 291.707031 158.09375 L 250.457031 158.09375 Z M 250.457031 142.34375 " clip-rule="nonzero"/></clipPath></defs><g fill="#222222" fill-opacity="1"><g transform="translate(43.861324, 194.020504)"><g><path d="M 26.734375 -41.46875 L 26.734375 -33.171875 L 12.46875 -33.171875 L 12.46875 -24.9375 L 26.140625 -24.9375 L 26.140625 -16.640625 L 12.46875 -16.640625 L 12.46875 -8.296875 L 26.734375 -8.296875 L 26.734375 0 L 3.015625 0 L 3.015625 -41.46875 Z M 26.734375 -41.46875 "/></g></g></g><g fill="#222222" fill-opacity="1"><g transform="translate(73.013132, 194.020504)"><g><path d="M 32.875 0 L 22.109375 0 L 16.4375 -7.28125 L 10.75 0 L 0 0 L 11.015625 -13.46875 L 1.5625 -25.78125 L 11.96875 -25.78125 L 16.4375 -19.796875 L 20.90625 -25.78125 L 31.3125 -25.78125 L 21.859375 -13.46875 Z M 32.875 0 "/></g></g></g><g fill="#222222" fill-opacity="1"><g transform="translate(105.884304, 194.020504)"><g><path d="M 16.734375 -19.25 C 15.054688 -19.25 13.613281 -18.628906 12.40625 -17.390625 C 11.207031 -16.148438 10.609375 -14.660156 10.609375 -12.921875 C 10.609375 -11.140625 11.207031 -9.628906 12.40625 -8.390625 C 13.613281 -7.148438 15.054688 -6.53125 16.734375 -6.53125 C 17.535156 -6.53125 18.296875 -6.628906 19.015625 -6.828125 C 19.742188 -7.035156 20.273438 -7.238281 20.609375 -7.4375 L 21.0625 -7.734375 L 24.078125 -1.5625 C 23.835938 -1.394531 23.507812 -1.179688 23.09375 -0.921875 C 22.675781 -0.671875 21.722656 -0.332031 20.234375 0.09375 C 18.742188 0.53125 17.144531 0.75 15.4375 0.75 C 11.644531 0.75 8.316406 -0.578125 5.453125 -3.234375 C 2.585938 -5.898438 1.15625 -9.09375 1.15625 -12.8125 C 1.15625 -16.570312 2.585938 -19.800781 5.453125 -22.5 C 8.316406 -25.195312 11.644531 -26.546875 15.4375 -26.546875 C 17.144531 -26.546875 18.71875 -26.34375 20.15625 -25.9375 C 21.59375 -25.53125 22.613281 -25.128906 23.21875 -24.734375 L 24.078125 -24.125 L 21.0625 -18.046875 C 19.957031 -18.847656 18.515625 -19.25 16.734375 -19.25 Z M 16.734375 -19.25 "/></g></g></g><g fill="#222222" fill-opacity="1"><g transform="translate(130.562811, 194.020504)"><g><path d="M 3.015625 0 L 3.015625 -43.234375 L 11.90625 -43.234375 L 11.90625 -23.078125 L 12.015625 -23.078125 C 14.328125 -25.390625 16.789062 -26.546875 19.40625 -26.546875 C 20.675781 -26.546875 21.9375 -26.375 23.1875 -26.03125 C 24.445312 -25.695312 25.65625 -25.175781 26.8125 -24.46875 C 27.96875 -23.769531 28.90625 -22.773438 29.625 -21.484375 C 30.351562 -20.191406 30.71875 -18.691406 30.71875 -16.984375 L 30.71875 0 L 21.8125 0 L 21.8125 -14.578125 C 21.8125 -15.921875 21.382812 -17.09375 20.53125 -18.09375 C 19.675781 -19.101562 18.5625 -19.609375 17.1875 -19.609375 C 15.851562 -19.609375 14.640625 -19.085938 13.546875 -18.046875 C 12.453125 -17.003906 11.90625 -15.847656 11.90625 -14.578125 L 11.90625 0 Z M 3.015625 0 "/></g></g></g><g fill="#222222" fill-opacity="1"><g transform="translate(163.785819, 194.020504)"><g><path d="M 4.765625 -3.1875 C 2.359375 -5.820312 1.15625 -9.046875 1.15625 -12.859375 C 1.15625 -16.679688 2.359375 -19.914062 4.765625 -22.5625 C 7.179688 -25.21875 10.25 -26.546875 13.96875 -26.546875 C 17.382812 -26.546875 20.203125 -25.472656 22.421875 -23.328125 L 22.421875 -25.78125 L 31.3125 -25.78125 L 31.3125 0 L 22.515625 0 L 22.515625 -2.921875 L 22.421875 -2.921875 C 20.203125 -0.472656 17.382812 0.75 13.96875 0.75 C 10.25 0.75 7.179688 -0.5625 4.765625 -3.1875 Z M 12.34375 -17.234375 C 11.1875 -16.097656 10.609375 -14.640625 10.609375 -12.859375 C 10.609375 -11.085938 11.160156 -9.640625 12.265625 -8.515625 C 13.367188 -7.398438 14.828125 -6.84375 16.640625 -6.84375 C 18.378906 -6.84375 19.8125 -7.410156 20.9375 -8.546875 C 22.0625 -9.679688 22.625 -11.125 22.625 -12.875 C 22.625 -14.644531 22.046875 -16.097656 20.890625 -17.234375 C 19.734375 -18.378906 18.316406 -18.953125 16.640625 -18.953125 C 14.929688 -18.953125 13.5 -18.378906 12.34375 -17.234375 Z M 12.34375 -17.234375 "/></g></g></g><g fill="#222222" fill-opacity="1"><g transform="translate(198.114579, 194.020504)"><g><path d="M 3.015625 0 L 3.015625 -25.78125 L 11.90625 -25.78125 L 11.90625 -23.078125 L 12.015625 -23.078125 C 14.328125 -25.390625 16.789062 -26.546875 19.40625 -26.546875 C 20.675781 -26.546875 21.9375 -26.375 23.1875 -26.03125 C 24.445312 -25.695312 25.65625 -25.175781 26.8125 -24.46875 C 27.96875 -23.769531 28.90625 -22.773438 29.625 -21.484375 C 30.351562 -20.191406 30.71875 -18.691406 30.71875 -16.984375 L 30.71875 0 L 21.8125 0 L 21.8125 -14.578125 C 21.8125 -15.921875 21.382812 -17.09375 20.53125 -18.09375 C 19.675781 -19.101562 18.5625 -19.609375 17.1875 -19.609375 C 15.851562 -19.609375 14.640625 -19.085938 13.546875 -18.046875 C 12.453125 -17.003906 11.90625 -15.847656 11.90625 -14.578125 L 11.90625 0 Z M 3.015625 0 "/></g></g></g><g fill="#222222" fill-opacity="1"><g transform="translate(231.337588, 194.020504)"><g><path d="M 1.859375 6.328125 L 9.140625 2.765625 C 10.484375 4.972656 12.816406 6.078125 16.140625 6.078125 C 17.679688 6.078125 19.113281 5.582031 20.4375 4.59375 C 21.757812 3.601562 22.421875 2.085938 22.421875 0.046875 L 22.421875 -1.859375 C 20.847656 -0.117188 18.03125 0.75 13.96875 0.75 C 10.25 0.75 7.179688 -0.5625 4.765625 -3.1875 C 2.359375 -5.820312 1.15625 -9.046875 1.15625 -12.859375 C 1.15625 -16.679688 2.359375 -19.914062 4.765625 -22.5625 C 7.179688 -25.21875 10.25 -26.546875 13.96875 -26.546875 C 17.289062 -26.546875 20.054688 -25.519531 22.265625 -23.46875 L 22.421875 -23.46875 L 22.421875 -25.78125 L 31.3125 -25.78125 L 31.3125 0.703125 C 31.3125 4.890625 29.921875 8.125 27.140625 10.40625 C 24.359375 12.6875 20.691406 13.828125 16.140625 13.828125 C 8.765625 13.828125 4.003906 11.328125 1.859375 6.328125 Z M 12.34375 -17.234375 C 11.1875 -16.097656 10.609375 -14.640625 10.609375 -12.859375 C 10.609375 -11.085938 11.160156 -9.640625 12.265625 -8.515625 C 13.367188 -7.398438 14.828125 -6.84375 16.640625 -6.84375 C 18.378906 -6.84375 19.8125 -7.410156 20.9375 -8.546875 C 22.0625 -9.679688 22.625 -11.125 22.625 -12.875 C 22.625 -14.644531 22.046875 -16.097656 20.890625 -17.234375 C 19.734375 -18.378906 18.316406 -18.953125 16.640625 -18.953125 C 14.929688 -18.953125 13.5 -18.378906 12.34375 -17.234375 Z M 12.34375 -17.234375 "/></g></g></g><g fill="#222222" fill-opacity="1"><g transform="translate(265.666348, 194.020504)"><g><path d="M 29.109375 -11.65625 L 10.40625 -11.65625 C 10.40625 -9.851562 10.988281 -8.515625 12.15625 -7.640625 C 13.332031 -6.765625 14.609375 -6.328125 15.984375 -6.328125 C 17.421875 -6.328125 18.554688 -6.519531 19.390625 -6.90625 C 20.234375 -7.289062 21.191406 -8.054688 22.265625 -9.203125 L 28.703125 -5.984375 C 26.023438 -1.492188 21.566406 0.75 15.328125 0.75 C 11.441406 0.75 8.109375 -0.578125 5.328125 -3.234375 C 2.546875 -5.898438 1.15625 -9.109375 1.15625 -12.859375 C 1.15625 -16.617188 2.546875 -19.835938 5.328125 -22.515625 C 8.109375 -25.203125 11.441406 -26.546875 15.328125 -26.546875 C 19.421875 -26.546875 22.75 -25.363281 25.3125 -23 C 27.875 -20.632812 29.15625 -17.257812 29.15625 -12.875 C 29.15625 -12.269531 29.140625 -11.863281 29.109375 -11.65625 Z M 10.65625 -16.59375 L 20.453125 -16.59375 C 20.253906 -17.925781 19.726562 -18.953125 18.875 -19.671875 C 18.019531 -20.398438 16.921875 -20.765625 15.578125 -20.765625 C 14.109375 -20.765625 12.9375 -20.378906 12.0625 -19.609375 C 11.1875 -18.835938 10.71875 -17.832031 10.65625 -16.59375 Z M 10.65625 -16.59375 "/></g></g></g><g clip-path="url(#id1)"><path fill="#ff1616" d="M 250.09375 142.355469 L 276.460938 142.355469 C 285.097656 142.355469 292.09375 149.390625 292.09375 158.078125 L 250.09375 158.078125 Z M 250.09375 142.355469 " fill-opacity="1" fill-rule="nonzero"/></g><g fill="#222222" fill-opacity="1"><g transform="translate(96.192509, 231.247631)"><g><path d="M 5.625 -2.5 C 5.625 -2.894531 5.507812 -3.210938 5.28125 -3.453125 C 5.050781 -3.703125 4.757812 -3.921875 4.40625 -4.109375 C 4.050781 -4.304688 3.664062 -4.488281 3.25 -4.65625 C 2.84375 -4.832031 2.460938 -5.035156 2.109375 -5.265625 C 1.765625 -5.503906 1.472656 -5.800781 1.234375 -6.15625 C 1.003906 -6.507812 0.890625 -6.957031 0.890625 -7.5 C 0.890625 -8.269531 1.15625 -8.878906 1.6875 -9.328125 C 2.21875 -9.773438 2.976562 -10 3.96875 -10 C 4.53125 -10 5.046875 -9.957031 5.515625 -9.875 C 5.984375 -9.789062 6.347656 -9.679688 6.609375 -9.546875 L 6.265625 -8.53125 C 6.046875 -8.632812 5.726562 -8.734375 5.3125 -8.828125 C 4.894531 -8.921875 4.425781 -8.96875 3.90625 -8.96875 C 3.289062 -8.96875 2.828125 -8.828125 2.515625 -8.546875 C 2.203125 -8.273438 2.046875 -7.953125 2.046875 -7.578125 C 2.046875 -7.210938 2.160156 -6.90625 2.390625 -6.65625 C 2.628906 -6.414062 2.925781 -6.195312 3.28125 -6 C 3.632812 -5.8125 4.015625 -5.625 4.421875 -5.4375 C 4.835938 -5.25 5.21875 -5.03125 5.5625 -4.78125 C 5.914062 -4.53125 6.207031 -4.234375 6.4375 -3.890625 C 6.675781 -3.546875 6.796875 -3.113281 6.796875 -2.59375 C 6.796875 -2.175781 6.71875 -1.796875 6.5625 -1.453125 C 6.414062 -1.117188 6.195312 -0.828125 5.90625 -0.578125 C 5.625 -0.335938 5.273438 -0.148438 4.859375 -0.015625 C 4.441406 0.109375 3.972656 0.171875 3.453125 0.171875 C 2.753906 0.171875 2.175781 0.113281 1.71875 0 C 1.257812 -0.101562 0.898438 -0.21875 0.640625 -0.34375 L 1.046875 -1.40625 C 1.253906 -1.28125 1.566406 -1.160156 1.984375 -1.046875 C 2.410156 -0.929688 2.882812 -0.875 3.40625 -0.875 C 3.71875 -0.875 4.007812 -0.898438 4.28125 -0.953125 C 4.550781 -1.015625 4.785156 -1.113281 4.984375 -1.25 C 5.179688 -1.382812 5.335938 -1.554688 5.453125 -1.765625 C 5.566406 -1.972656 5.625 -2.21875 5.625 -2.5 Z M 5.625 -2.5 "/></g></g></g><g fill="#222222" fill-opacity="1"><g transform="translate(108.003835, 231.247631)"><g><path d="M 1.1875 -9.828125 L 6.546875 -9.828125 L 6.546875 -8.796875 L 2.359375 -8.796875 L 2.359375 -5.578125 L 6.1875 -5.578125 L 6.1875 -4.53125 L 2.359375 -4.53125 L 2.359375 -1.046875 L 6.609375 -1.046875 L 6.609375 0 L 1.1875 0 Z M 1.1875 -9.828125 "/></g></g></g><g fill="#222222" fill-opacity="1"><g transform="translate(119.885359, 231.247631)"><g><path d="M 1.1875 -9.734375 C 1.550781 -9.796875 1.960938 -9.84375 2.421875 -9.875 C 2.890625 -9.914062 3.3125 -9.9375 3.6875 -9.9375 C 4.125 -9.9375 4.535156 -9.890625 4.921875 -9.796875 C 5.304688 -9.710938 5.644531 -9.5625 5.9375 -9.34375 C 6.238281 -9.125 6.476562 -8.84375 6.65625 -8.5 C 6.832031 -8.15625 6.921875 -7.734375 6.921875 -7.234375 C 6.921875 -6.460938 6.707031 -5.835938 6.28125 -5.359375 C 5.863281 -4.890625 5.332031 -4.570312 4.6875 -4.40625 L 5.359375 -3.890625 L 7.8125 0 L 6.453125 0 L 3.734375 -4.234375 L 2.359375 -4.453125 L 2.359375 0 L 1.1875 0 Z M 3.71875 -8.9375 C 3.601562 -8.9375 3.476562 -8.9375 3.34375 -8.9375 C 3.207031 -8.9375 3.078125 -8.929688 2.953125 -8.921875 C 2.835938 -8.910156 2.722656 -8.898438 2.609375 -8.890625 C 2.503906 -8.878906 2.421875 -8.863281 2.359375 -8.84375 L 2.359375 -5.21875 L 3.453125 -5.21875 C 4.097656 -5.21875 4.628906 -5.378906 5.046875 -5.703125 C 5.472656 -6.023438 5.6875 -6.519531 5.6875 -7.1875 C 5.6875 -7.695312 5.515625 -8.113281 5.171875 -8.4375 C 4.828125 -8.769531 4.34375 -8.9375 3.71875 -8.9375 Z M 3.71875 -8.9375 "/></g></g></g><g fill="#222222" fill-opacity="1"><g transform="translate(132.595184, 231.247631)"><g><path d="M 3.75 -3.078125 L 4.09375 -1.59375 L 4.109375 -1.59375 L 4.46875 -3.109375 L 6.84375 -9.828125 L 8 -9.828125 L 4.28125 0.15625 L 3.765625 0.15625 L -0.03125 -9.828125 L 1.25 -9.828125 Z M 3.75 -3.078125 "/></g></g></g><g fill="#222222" fill-opacity="1"><g transform="translate(144.925957, 231.247631)"><g><path d="M 1.453125 -9.828125 L 2.625 -9.828125 L 2.625 0 L 1.453125 0 Z M 1.453125 -9.828125 "/></g></g></g><g fill="#222222" fill-opacity="1"><g transform="translate(153.367914, 231.247631)"><g><path d="M 7.484375 -0.40625 C 7.242188 -0.21875 6.941406 -0.0820312 6.578125 0 C 6.222656 0.0820312 5.835938 0.132812 5.421875 0.15625 L 5.1875 0.609375 C 5.570312 0.679688 5.851562 0.800781 6.03125 0.96875 C 6.207031 1.132812 6.296875 1.363281 6.296875 1.65625 C 6.296875 2.019531 6.144531 2.320312 5.84375 2.5625 C 5.539062 2.800781 5.117188 2.921875 4.578125 2.921875 C 4.472656 2.921875 4.367188 2.914062 4.265625 2.90625 C 4.160156 2.894531 4.054688 2.878906 3.953125 2.859375 L 4.078125 2.3125 C 4.128906 2.320312 4.175781 2.328125 4.21875 2.328125 C 4.269531 2.328125 4.320312 2.328125 4.375 2.328125 C 4.570312 2.328125 4.726562 2.304688 4.84375 2.265625 C 4.96875 2.234375 5.0625 2.191406 5.125 2.140625 C 5.1875 2.085938 5.222656 2.03125 5.234375 1.96875 C 5.242188 1.90625 5.25 1.84375 5.25 1.78125 C 5.25 1.519531 4.847656 1.347656 4.046875 1.265625 L 4.640625 0.140625 C 4.097656 0.0976562 3.59375 -0.03125 3.125 -0.25 C 2.65625 -0.46875 2.242188 -0.78125 1.890625 -1.1875 C 1.546875 -1.601562 1.273438 -2.117188 1.078125 -2.734375 C 0.878906 -3.359375 0.78125 -4.085938 0.78125 -4.921875 C 0.78125 -5.835938 0.90625 -6.613281 1.15625 -7.25 C 1.40625 -7.894531 1.734375 -8.421875 2.140625 -8.828125 C 2.546875 -9.234375 3 -9.53125 3.5 -9.71875 C 4.007812 -9.90625 4.53125 -10 5.0625 -10 C 5.625 -10 6.082031 -9.96875 6.4375 -9.90625 C 6.789062 -9.84375 7.09375 -9.765625 7.34375 -9.671875 L 7.0625 -8.640625 C 6.613281 -8.859375 5.972656 -8.96875 5.140625 -8.96875 C 4.753906 -8.96875 4.375 -8.894531 4 -8.75 C 3.625 -8.613281 3.289062 -8.382812 3 -8.0625 C 2.707031 -7.738281 2.46875 -7.320312 2.28125 -6.8125 C 2.101562 -6.300781 2.015625 -5.671875 2.015625 -4.921875 C 2.015625 -4.242188 2.097656 -3.648438 2.265625 -3.140625 C 2.441406 -2.640625 2.675781 -2.21875 2.96875 -1.875 C 3.257812 -1.539062 3.601562 -1.289062 4 -1.125 C 4.40625 -0.957031 4.84375 -0.875 5.3125 -0.875 C 5.726562 -0.875 6.09375 -0.914062 6.40625 -1 C 6.726562 -1.082031 6.992188 -1.191406 7.203125 -1.328125 Z M 7.484375 -0.40625 "/></g></g></g><g fill="#222222" fill-opacity="1"><g transform="translate(165.740802, 231.247631)"><g><path d="M 0.78125 -4.921875 C 0.78125 -6.554688 1.125 -7.8125 1.8125 -8.6875 C 2.507812 -9.5625 3.503906 -10 4.796875 -10 C 5.484375 -10 6.078125 -9.875 6.578125 -9.625 C 7.085938 -9.382812 7.507812 -9.039062 7.84375 -8.59375 C 8.175781 -8.15625 8.421875 -7.625 8.578125 -7 C 8.742188 -6.375 8.828125 -5.679688 8.828125 -4.921875 C 8.828125 -3.273438 8.476562 -2.015625 7.78125 -1.140625 C 7.082031 -0.265625 6.085938 0.171875 4.796875 0.171875 C 4.109375 0.171875 3.515625 0.0507812 3.015625 -0.1875 C 2.515625 -0.4375 2.097656 -0.78125 1.765625 -1.21875 C 1.429688 -1.664062 1.179688 -2.203125 1.015625 -2.828125 C 0.859375 -3.453125 0.78125 -4.148438 0.78125 -4.921875 Z M 2.015625 -4.921875 C 2.015625 -4.378906 2.066406 -3.863281 2.171875 -3.375 C 2.285156 -2.882812 2.453125 -2.453125 2.671875 -2.078125 C 2.898438 -1.710938 3.191406 -1.421875 3.546875 -1.203125 C 3.898438 -0.984375 4.316406 -0.875 4.796875 -0.875 C 5.660156 -0.875 6.335938 -1.203125 6.828125 -1.859375 C 7.328125 -2.515625 7.578125 -3.535156 7.578125 -4.921875 C 7.578125 -5.453125 7.523438 -5.960938 7.421875 -6.453125 C 7.316406 -6.941406 7.148438 -7.367188 6.921875 -7.734375 C 6.691406 -8.109375 6.398438 -8.40625 6.046875 -8.625 C 5.691406 -8.851562 5.273438 -8.96875 4.796875 -8.96875 C 3.929688 -8.96875 3.25 -8.632812 2.75 -7.96875 C 2.257812 -7.3125 2.015625 -6.296875 2.015625 -4.921875 Z M 2.015625 -4.921875 "/></g></g></g><g fill="#222222" fill-opacity="1"><g transform="translate(179.700104, 231.247631)"><g><path d="M 5.625 -2.5 C 5.625 -2.894531 5.507812 -3.210938 5.28125 -3.453125 C 5.050781 -3.703125 4.757812 -3.921875 4.40625 -4.109375 C 4.050781 -4.304688 3.664062 -4.488281 3.25 -4.65625 C 2.84375 -4.832031 2.460938 -5.035156 2.109375 -5.265625 C 1.765625 -5.503906 1.472656 -5.800781 1.234375 -6.15625 C 1.003906 -6.507812 0.890625 -6.957031 0.890625 -7.5 C 0.890625 -8.269531 1.15625 -8.878906 1.6875 -9.328125 C 2.21875 -9.773438 2.976562 -10 3.96875 -10 C 4.53125 -10 5.046875 -9.957031 5.515625 -9.875 C 5.984375 -9.789062 6.347656 -9.679688 6.609375 -9.546875 L 6.265625 -8.53125 C 6.046875 -8.632812 5.726562 -8.734375 5.3125 -8.828125 C 4.894531 -8.921875 4.425781 -8.96875 3.90625 -8.96875 C 3.289062 -8.96875 2.828125 -8.828125 2.515625 -8.546875 C 2.203125 -8.273438 2.046875 -7.953125 2.046875 -7.578125 C 2.046875 -7.210938 2.160156 -6.90625 2.390625 -6.65625 C 2.628906 -6.414062 2.925781 -6.195312 3.28125 -6 C 3.632812 -5.8125 4.015625 -5.625 4.421875 -5.4375 C 4.835938 -5.25 5.21875 -5.03125 5.5625 -4.78125 C 5.914062 -4.53125 6.207031 -4.234375 6.4375 -3.890625 C 6.675781 -3.546875 6.796875 -3.113281 6.796875 -2.59375 C 6.796875 -2.175781 6.71875 -1.796875 6.5625 -1.453125 C 6.414062 -1.117188 6.195312 -0.828125 5.90625 -0.578125 C 5.625 -0.335938 5.273438 -0.148438 4.859375 -0.015625 C 4.441406 0.109375 3.972656 0.171875 3.453125 0.171875 C 2.753906 0.171875 2.175781 0.113281 1.71875 0 C 1.257812 -0.101562 0.898438 -0.21875 0.640625 -0.34375 L 1.046875 -1.40625 C 1.253906 -1.28125 1.566406 -1.160156 1.984375 -1.046875 C 2.410156 -0.929688 2.882812 -0.875 3.40625 -0.875 C 3.71875 -0.875 4.007812 -0.898438 4.28125 -0.953125 C 4.550781 -1.015625 4.785156 -1.113281 4.984375 -1.25 C 5.179688 -1.382812 5.335938 -1.554688 5.453125 -1.765625 C 5.566406 -1.972656 5.625 -2.21875 5.625 -2.5 Z M 5.625 -2.5 "/></g></g></g><g fill="#222222" fill-opacity="1"><g transform="translate(191.51143, 231.247631)"><g/></g></g><g fill="#222222" fill-opacity="1"><g transform="translate(199.616445, 231.247631)"><g><path d="M 1.1875 -9.828125 C 1.363281 -9.859375 1.5625 -9.878906 1.78125 -9.890625 C 2.007812 -9.910156 2.242188 -9.921875 2.484375 -9.921875 C 2.722656 -9.929688 2.957031 -9.9375 3.1875 -9.9375 C 3.414062 -9.9375 3.628906 -9.9375 3.828125 -9.9375 C 4.609375 -9.9375 5.285156 -9.816406 5.859375 -9.578125 C 6.441406 -9.335938 6.921875 -9 7.296875 -8.5625 C 7.671875 -8.125 7.945312 -7.597656 8.125 -6.984375 C 8.3125 -6.378906 8.40625 -5.710938 8.40625 -4.984375 C 8.40625 -4.316406 8.316406 -3.675781 8.140625 -3.0625 C 7.960938 -2.457031 7.6875 -1.914062 7.3125 -1.4375 C 6.9375 -0.96875 6.445312 -0.585938 5.84375 -0.296875 C 5.25 -0.015625 4.53125 0.125 3.6875 0.125 C 3.53125 0.125 3.332031 0.117188 3.09375 0.109375 C 2.851562 0.109375 2.609375 0.0976562 2.359375 0.078125 C 2.109375 0.0664062 1.875 0.0546875 1.65625 0.046875 C 1.4375 0.046875 1.28125 0.0351562 1.1875 0.015625 Z M 3.84375 -8.90625 C 3.726562 -8.90625 3.597656 -8.90625 3.453125 -8.90625 C 3.304688 -8.90625 3.160156 -8.898438 3.015625 -8.890625 C 2.878906 -8.878906 2.75 -8.867188 2.625 -8.859375 C 2.507812 -8.847656 2.421875 -8.835938 2.359375 -8.828125 L 2.359375 -0.96875 C 2.410156 -0.957031 2.5 -0.945312 2.625 -0.9375 C 2.757812 -0.9375 2.894531 -0.929688 3.03125 -0.921875 C 3.175781 -0.921875 3.3125 -0.914062 3.4375 -0.90625 C 3.570312 -0.90625 3.660156 -0.90625 3.703125 -0.90625 C 4.359375 -0.90625 4.910156 -1.019531 5.359375 -1.25 C 5.804688 -1.476562 6.160156 -1.78125 6.421875 -2.15625 C 6.691406 -2.53125 6.878906 -2.960938 6.984375 -3.453125 C 7.097656 -3.953125 7.15625 -4.460938 7.15625 -4.984375 C 7.15625 -5.441406 7.101562 -5.898438 7 -6.359375 C 6.90625 -6.828125 6.726562 -7.25 6.46875 -7.625 C 6.21875 -8 5.878906 -8.304688 5.453125 -8.546875 C 5.023438 -8.785156 4.488281 -8.90625 3.84375 -8.90625 Z M 3.84375 -8.90625 "/></g></g></g><g fill="#222222" fill-opacity="1"><g transform="translate(213.154575, 231.247631)"><g><path d="M 1.1875 -9.828125 L 6.546875 -9.828125 L 6.546875 -8.796875 L 2.359375 -8.796875 L 2.359375 -5.578125 L 6.1875 -5.578125 L 6.1875 -4.53125 L 2.359375 -4.53125 L 2.359375 -1.046875 L 6.609375 -1.046875 L 6.609375 0 L 1.1875 0 Z M 1.1875 -9.828125 "/></g></g></g><g fill="#222222" fill-opacity="1"><g transform="translate(225.036105, 231.247631)"><g/></g></g><g fill="#222222" fill-opacity="1"><g transform="translate(233.141131, 231.247631)"><g><path d="M 7.546875 -8.796875 L 4.484375 -8.796875 L 4.484375 0 L 3.3125 0 L 3.3125 -8.796875 L 0.25 -8.796875 L 0.25 -9.828125 L 7.546875 -9.828125 Z M 7.546875 -8.796875 "/></g></g></g><g fill="#222222" fill-opacity="1"><g transform="translate(245.2894, 231.247631)"><g><path d="M 1.1875 -9.734375 C 1.550781 -9.796875 1.960938 -9.84375 2.421875 -9.875 C 2.890625 -9.914062 3.3125 -9.9375 3.6875 -9.9375 C 4.125 -9.9375 4.535156 -9.890625 4.921875 -9.796875 C 5.304688 -9.710938 5.644531 -9.5625 5.9375 -9.34375 C 6.238281 -9.125 6.476562 -8.84375 6.65625 -8.5 C 6.832031 -8.15625 6.921875 -7.734375 6.921875 -7.234375 C 6.921875 -6.460938 6.707031 -5.835938 6.28125 -5.359375 C 5.863281 -4.890625 5.332031 -4.570312 4.6875 -4.40625 L 5.359375 -3.890625 L 7.8125 0 L 6.453125 0 L 3.734375 -4.234375 L 2.359375 -4.453125 L 2.359375 0 L 1.1875 0 Z M 3.71875 -8.9375 C 3.601562 -8.9375 3.476562 -8.9375 3.34375 -8.9375 C 3.207031 -8.9375 3.078125 -8.929688 2.953125 -8.921875 C 2.835938 -8.910156 2.722656 -8.898438 2.609375 -8.890625 C 2.503906 -8.878906 2.421875 -8.863281 2.359375 -8.84375 L 2.359375 -5.21875 L 3.453125 -5.21875 C 4.097656 -5.21875 4.628906 -5.378906 5.046875 -5.703125 C 5.472656 -6.023438 5.6875 -6.519531 5.6875 -7.1875 C 5.6875 -7.695312 5.515625 -8.113281 5.171875 -8.4375 C 4.828125 -8.769531 4.34375 -8.9375 3.71875 -8.9375 Z M 3.71875 -8.9375 "/></g></g></g><g fill="#222222" fill-opacity="1"><g transform="translate(257.999231, 231.247631)"><g><path d="M 0.78125 -4.921875 C 0.78125 -6.554688 1.125 -7.8125 1.8125 -8.6875 C 2.507812 -9.5625 3.503906 -10 4.796875 -10 C 5.484375 -10 6.078125 -9.875 6.578125 -9.625 C 7.085938 -9.382812 7.507812 -9.039062 7.84375 -8.59375 C 8.175781 -8.15625 8.421875 -7.625 8.578125 -7 C 8.742188 -6.375 8.828125 -5.679688 8.828125 -4.921875 C 8.828125 -3.273438 8.476562 -2.015625 7.78125 -1.140625 C 7.082031 -0.265625 6.085938 0.171875 4.796875 0.171875 C 4.109375 0.171875 3.515625 0.0507812 3.015625 -0.1875 C 2.515625 -0.4375 2.097656 -0.78125 1.765625 -1.21875 C 1.429688 -1.664062 1.179688 -2.203125 1.015625 -2.828125 C 0.859375 -3.453125 0.78125 -4.148438 0.78125 -4.921875 Z M 2.015625 -4.921875 C 2.015625 -4.378906 2.066406 -3.863281 2.171875 -3.375 C 2.285156 -2.882812 2.453125 -2.453125 2.671875 -2.078125 C 2.898438 -1.710938 3.191406 -1.421875 3.546875 -1.203125 C 3.898438 -0.984375 4.316406 -0.875 4.796875 -0.875 C 5.660156 -0.875 6.335938 -1.203125 6.828125 -1.859375 C 7.328125 -2.515625 7.578125 -3.535156 7.578125 -4.921875 C 7.578125 -5.453125 7.523438 -5.960938 7.421875 -6.453125 C 7.316406 -6.941406 7.148438 -7.367188 6.921875 -7.734375 C 6.691406 -8.109375 6.398438 -8.40625 6.046875 -8.625 C 5.691406 -8.851562 5.273438 -8.96875 4.796875 -8.96875 C 3.929688 -8.96875 3.25 -8.632812 2.75 -7.96875 C 2.257812 -7.3125 2.015625 -6.296875 2.015625 -4.921875 Z M 2.015625 -4.921875 "/></g></g></g><g fill="#222222" fill-opacity="1"><g transform="translate(271.958527, 231.247631)"><g><path d="M 7.484375 -0.40625 C 7.203125 -0.1875 6.84375 -0.0351562 6.40625 0.046875 C 5.976562 0.128906 5.523438 0.171875 5.046875 0.171875 C 4.453125 0.171875 3.894531 0.0703125 3.375 -0.125 C 2.863281 -0.332031 2.414062 -0.640625 2.03125 -1.046875 C 1.644531 -1.460938 1.335938 -1.988281 1.109375 -2.625 C 0.890625 -3.269531 0.78125 -4.035156 0.78125 -4.921875 C 0.78125 -5.835938 0.90625 -6.613281 1.15625 -7.25 C 1.40625 -7.894531 1.734375 -8.421875 2.140625 -8.828125 C 2.546875 -9.234375 3 -9.53125 3.5 -9.71875 C 4.007812 -9.90625 4.53125 -10 5.0625 -10 C 5.625 -10 6.082031 -9.96875 6.4375 -9.90625 C 6.789062 -9.84375 7.09375 -9.765625 7.34375 -9.671875 L 7.0625 -8.640625 C 6.613281 -8.859375 5.972656 -8.96875 5.140625 -8.96875 C 4.753906 -8.96875 4.375 -8.894531 4 -8.75 C 3.625 -8.613281 3.289062 -8.382812 3 -8.0625 C 2.707031 -7.738281 2.46875 -7.320312 2.28125 -6.8125 C 2.101562 -6.300781 2.015625 -5.671875 2.015625 -4.921875 C 2.015625 -4.242188 2.097656 -3.648438 2.265625 -3.140625 C 2.441406 -2.640625 2.675781 -2.21875 2.96875 -1.875 C 3.257812 -1.539062 3.601562 -1.289062 4 -1.125 C 4.40625 -0.957031 4.84375 -0.875 5.3125 -0.875 C 5.726562 -0.875 6.09375 -0.914062 6.40625 -1 C 6.726562 -1.082031 6.992188 -1.191406 7.203125 -1.328125 Z M 7.484375 -0.40625 "/></g></g></g><g fill="#222222" fill-opacity="1"><g transform="translate(284.33142, 231.247631)"><g><path d="M 5.875 -2.71875 L 2.25 -2.71875 L 1.265625 0 L 0.109375 0 L 3.828125 -9.984375 L 4.375 -9.984375 L 8.109375 0 L 6.890625 0 Z M 2.625 -3.734375 L 5.515625 -3.734375 L 4.421875 -6.734375 L 4.078125 -8.21875 L 4.0625 -8.21875 L 3.703125 -6.703125 Z M 2.625 -3.734375 "/></g></g></g></svg>